{"title":"Aadat Se Majboor (Ladies vs Ricky Bahl) - Full Song - H.264 - 72","uid":6968112,"size":86768390,"categoryP":"video","categoryS":"music_videos","magnet":"?xt=urn:btih:18c2d00106ab2685d1db2e935f7e70f96cf3f2bd&amp;dn=Aadat+Se+Majboor+%28Ladies+vs+Ricky+Bahl%29+-+Full+Song+-+H.264+-+72&amp;tr=udp%3A%2F%2Ftracker.openbittorrent.com%3A80&amp;tr=udp%3A%2F%2Fopen.demonii.com%3A1337&amp;tr=udp%3A%2F%2Ftracker.coppersurfer.tk%3A6969&amp;tr=udp%3A%2F%2Fexodus.desync.com%3A6969","seeders":1,"leechers":0,"uploader":"AbhiHKRG","files":6,"time":1326993084,"description":"Cover :: &lt;a href=&quot;\nhttp://i.minus.com/idBC9I8B5jkEN.png&quot; rel=&quot;nofollow&quot; target=&quot;_NEW&quot;&gt;\nhttp://i.minus.com/idBC9I8B5jkEN.png&lt;/a&gt;\n\n\nScreen ::\n &lt;a href=&quot;\nhttp://i.minus.com/iY0YYOMVmw0rO.png&quot; rel=&quot;nofollow&quot; target=&quot;_NEW&quot;&gt;\nhttp://i.minus.com/iY0YYOMVmw0rO.png&lt;/a&gt;\n &lt;a href=&quot;\nhttp://i.minus.com/ibt6pFaSX1H9xh.png&quot; rel=&quot;nofollow&quot; target=&quot;_NEW&quot;&gt;\nhttp://i.minus.com/ibt6pFaSX1H9xh.png&lt;/a&gt;\n &lt;a href=&quot;\nhttp://i.minus.com/ibaEvuGfgBpS4F.png&quot; rel=&quot;nofollow&quot; target=&quot;_NEW&quot;&gt;\nhttp://i.minus.com/ibaEvuGfgBpS4F.png&lt;/a&gt;\n &lt;a href=&quot;\nhttp://i.minus.com/iR6i0yoVuHmFI.png&quot; rel=&quot;nofollow&quot; target=&quot;_NEW&quot;&gt;\nhttp://i.minus.com/iR6i0yoVuHmFI.png&lt;/a&gt;\n &lt;a href=&quot;\nhttp://i.minus.com/ibmA25qkfeF4SM.png&quot; rel=&quot;nofollow&quot; target=&quot;_NEW&quot;&gt;\nhttp://i.minus.com/ibmA25qkfeF4SM.png&lt;/a&gt;\n &lt;a href=&quot;\nhttp://i.minus.com/imdXbSmV1C6pf.jpg&quot; rel=&quot;nofollow&quot; target=&quot;_NEW&quot;&gt;\nhttp://i.minus.com/imdXbSmV1C6pf.jpg&lt;/a&gt;\n\n\nGeneral Info ::\nFormat                           : AVI\nFormat/Info                      : Audio Video Interleave\nFile size                        : 82.7 MiB\nDuration                         : 4mn 38s\nOverall bit rate                 : 2 489 Kbps\n\n\nVideo Info ::\nID                               : 0\nFormat                           : AVC\nFormat/Info                      : Advanced Video Codec\nFormat profile                   : &lt;a class=&quot;__cf_email__&quot; href=&quot;/cdn-cgi/l/email-protection&quot; data-cfemail=&quot;571f3e303f171b627966&quot;&gt;[email&amp;#160;protected]&lt;/a&gt;&lt;script cf-hash='f9e31' type=&quot;text/javascript&quot;&gt;\n/* &lt;![CDATA[ */!function(){try{var t=&quot;currentScript&quot;in document?document.currentScript:function(){for(var t=document.getElementsByTagName(&quot;script&quot;),e=t.length;e--;)if(t[e].getAttribute(&quot;cf-hash&quot;))return t[e]}();if(t&amp;&amp;t.previousSibling){var e,r,n,i,c=t.previousSibling,a=c.getAttribute(&quot;data-cfemail&quot;);if(a){for(e=&quot;&quot;,r=parseInt(a.substr(0,2),16),n=2;a.length-n;n+=2)i=parseInt(a.substr(n,2),16)^r,e+=String.fromCharCode(i);e=document.createTextNode(e),c.parentNode.replaceChild(e,c)}}}catch(u){}}();/* ]]&gt; */&lt;/script&gt;\nFormat settings, CABAC           : Yes\nFormat settings, ReFrames        : 2 frames\nCodec ID                         : H264\nDuration                         : 10s 0ms\nBit rate                         : 2 158 Kbps\nWidth                            : 1 280 pixels\nHeight                           : 544 pixels\nDisplay aspect ratio             : 2.35:1\nFrame rate                       : 30.000 fps\nColor space                      : YUV\nChroma subsampling               : 4:2:0\nBit depth                        : 8 bits\nScan type                        : Progressive\nBits/(Pixel*Frame)               : 0.103\nStream size                      : 71.7 MiB (87%)\n\n\nAudio Info ::\nID                               : 1\nFormat                           : MPEG Audio\nFormat version                   : Version 1\nFormat profile                   : Layer 3\nCodec ID                         : 55\nCodec ID/Hint                    : MP3\nDuration                         : 4mn 38s\nBit rate mode                    : Constant\nBit rate                         : 320 Kbps\nChannel(s)                       : 2 channels\nSampling rate                    : 48.0 KHz\nCompression mode                 : Lossy\nStream size                      : 10.6 MiB (13%)","torrent":{"xt":"urn:btih:18c2d00106ab2685d1db2e935f7e70f96cf3f2bd","amp;dn":"Aadat+Se+Majboor+%28Ladies+vs+Ricky+Bahl%29+-+Full+Song+-+H.264+-+72","amp;tr":["udp%3A%2F%2Ftracker.openbittorrent.com%3A80","udp%3A%2F%2Fopen.demonii.com%3A1337","udp%3A%2F%2Ftracker.coppersurfer.tk%3A6969","udp%3A%2F%2Fexodus.desync.com%3A6969"],"infoHash":"18c2d00106ab2685d1db2e935f7e70f96cf3f2bd","infoHashBuffer":{"type":"Buffer","data":[24,194,208,1,6,171,38,133,209,219,46,147,95,126,112,249,108,243,242,189]},"announce":[],"urlList":[]}}